<svg width="1700" height="1200" viewBox="0 0 1700 1200" fill="none" xmlns="http://www.w3.org/2000/svg">
<rect width="1700" height="1200" fill="white"/>
<g opacity="0.4">
<path d="M830 281H363C351.954 281 343 289.954 343 301V650C343 661.046 351.954 670 363 670H830C841.046 670 850 661.046 850 650V301C850 289.954 841.046 281 830 281Z" fill="#F2F6FB"/>
<path d="M602.221 375.325L682.601 400.57L767.493 448.621L773.131 438.595L687.185 389.947L600.794 362.814L513.677 414.179L426.767 444.209L430.503 455.093L518.5 424.688L602.221 375.325Z" fill="#D8DEED"/>
<path d="M425.249 464.851C417.379 464.851 411 458.475 411 450.611C411 442.746 417.379 436.371 425.249 436.371C433.118 436.371 439.498 442.746 439.498 450.611C439.498 458.475 433.118 464.851 425.249 464.851ZM510.742 432.302C502.873 432.302 496.493 425.927 496.493 418.062C496.493 410.198 502.873 403.822 510.742 403.822C518.612 403.822 524.991 410.198 524.991 418.062C524.991 425.927 518.612 432.302 510.742 432.302ZM596.236 383.48C588.366 383.48 581.987 377.104 581.987 369.24C581.987 361.375 588.366 355 596.236 355C604.105 355 610.485 361.375 610.485 369.24C610.485 377.104 604.105 383.48 596.236 383.48ZM681.729 407.891C673.86 407.891 667.48 401.516 667.48 393.651C667.48 385.787 673.86 379.411 681.729 379.411C689.599 379.411 695.978 385.787 695.978 393.651C695.978 401.516 689.599 407.891 681.729 407.891ZM767.223 460.782C759.353 460.782 752.974 454.407 752.974 446.542C752.974 438.678 759.353 432.302 767.223 432.302C775.092 432.302 781.472 438.678 781.472 446.542C781.472 454.407 775.092 460.782 767.223 460.782Z" fill="#FFCB3D"/>
<path d="M636.303 521.653V591.159C636.303 593.28 634.582 595 632.458 595H627.942C625.82 595 624.096 593.28 624.096 591.159V521.653C624.096 519.533 625.818 517.812 627.942 517.812H632.458C634.58 517.812 636.303 519.532 636.303 521.653ZM611.89 533.847V591.153C611.89 593.278 610.168 595 608.044 595H603.528C601.406 595 599.683 593.277 599.683 591.153V533.847C599.683 531.722 601.404 530 603.528 530H608.044C610.167 530 611.89 531.723 611.89 533.847ZM587.476 497.279V591.158C587.476 593.28 585.754 595 583.63 595H579.114C576.992 595 575.269 593.28 575.269 591.158V497.279C575.269 495.158 576.991 493.438 579.114 493.438H583.63C585.753 493.438 587.476 495.158 587.476 497.279ZM563.062 521.653V591.159C563.062 593.28 561.34 595 559.216 595H554.701C552.578 595 550.855 593.28 550.855 591.159V521.653C550.855 519.533 552.577 517.812 554.701 517.812H559.216C561.339 517.812 563.062 519.532 563.062 521.653ZM538.648 485.1V591.15C538.648 593.281 536.926 595 534.803 595H530.287C528.164 595 526.441 593.276 526.441 591.15V485.1C526.441 482.969 528.163 481.25 530.287 481.25H534.803C536.925 481.25 538.648 482.974 538.648 485.1ZM514.234 497.279V591.158C514.234 593.28 512.513 595 510.389 595H505.873C503.751 595 502.028 593.28 502.028 591.158V497.279C502.028 495.158 503.749 493.438 505.873 493.438H510.389C512.511 493.438 514.234 495.158 514.234 497.279ZM489.821 476.974V591.151C489.821 593.277 488.099 595 485.975 595H481.459C479.337 595 477.614 593.277 477.614 591.151V476.974C477.614 474.848 479.335 473.125 481.459 473.125H485.975C488.098 473.125 489.821 474.848 489.821 476.974ZM465.407 468.838V591.162C465.407 593.285 463.685 595 461.561 595H457.046C454.923 595 453.2 593.282 453.2 591.162V468.838C453.2 466.715 454.922 465 457.046 465H461.561C463.684 465 465.407 466.718 465.407 468.838ZM440.993 497.279V591.158C440.993 593.28 439.271 595 437.147 595H432.632C430.509 595 428.786 593.28 428.786 591.158V497.279C428.786 495.158 430.508 493.438 432.632 493.438H437.147C439.27 493.438 440.993 495.158 440.993 497.279ZM782.786 521.653V591.159C782.786 593.28 781.064 595 778.941 595H774.425C772.302 595 770.579 593.28 770.579 591.159V521.653C770.579 519.533 772.301 517.812 774.425 517.812H778.941C781.063 517.812 782.786 519.532 782.786 521.653ZM758.372 485.1V591.15C758.372 593.281 756.651 595 754.527 595H750.011C747.888 595 746.165 593.276 746.165 591.15V485.1C746.165 482.969 747.887 481.25 750.011 481.25H754.527C756.649 481.25 758.372 482.974 758.372 485.1ZM733.959 497.279V591.158C733.959 593.28 732.237 595 730.113 595H725.597C723.475 595 721.752 593.28 721.752 591.158V497.279C721.752 495.158 723.473 493.438 725.597 493.438H730.113C732.235 493.438 733.959 495.158 733.959 497.279ZM709.545 476.974V591.151C709.545 593.277 707.823 595 705.699 595H701.183C699.061 595 697.338 593.277 697.338 591.151V476.974C697.338 474.848 699.06 473.125 701.183 473.125H705.699C707.822 473.125 709.545 474.848 709.545 476.974ZM685.131 468.838V591.162C685.131 593.285 683.409 595 681.285 595H676.77C674.647 595 672.924 593.282 672.924 591.162V468.838C672.924 466.715 674.646 465 676.77 465H681.285C683.408 465 685.131 466.718 685.131 468.838ZM660.717 497.279V591.158C660.717 593.28 658.995 595 656.872 595H652.356C650.233 595 648.51 593.28 648.51 591.158V497.279C648.51 495.158 650.232 493.438 652.356 493.438H656.872C658.994 493.438 660.717 495.158 660.717 497.279Z" fill="#D8DEED"/>
</g>
<g opacity="0.4">
<path d="M1478.3 440.2H1172.7C1160.7 440.2 1150.9 431.316 1150.9 420.438V237.962C1150.9 227.084 1160.7 218.2 1172.7 218.2H1478.3C1490.3 218.2 1500.1 227.084 1500.1 237.962V420.348C1500.1 431.316 1490.3 440.2 1478.3 440.2Z" fill="#F2F6FB"/>
<path d="M1151 217.005C1151 205.957 1159.96 197 1171 197H1480C1491.05 197 1500 205.962 1500 217.005V240H1151V217.005Z" fill="#E1E5F0"/>
<path d="M1253.54 338.851L1293.36 360.554C1296.75 362.402 1298 366.635 1296.14 370.008C1294.28 373.381 1290.03 374.617 1286.64 372.769L1237.64 346.062C1233.26 343.678 1232.73 337.638 1236.61 334.528L1283.29 297.166C1286.3 294.754 1290.7 295.229 1293.13 298.226C1295.55 301.222 1295.07 305.606 1292.06 308.017L1253.54 338.851ZM1360.11 360.919L1397.76 334.814L1358.1 308.408C1354.92 306.293 1354.04 301.974 1356.14 298.762C1358.23 295.549 1362.5 294.66 1365.68 296.776L1413.9 328.88C1417.99 331.601 1418.04 337.641 1414.01 340.439L1367.91 372.405C1364.77 374.581 1360.48 373.773 1358.33 370.601C1356.18 367.429 1356.98 363.095 1360.11 360.919ZM1321.7 384.219C1320.85 387.96 1317.13 390.303 1313.4 389.453C1309.66 388.602 1307.33 384.88 1308.17 381.139L1329.3 288.036C1330.15 284.294 1333.87 281.951 1337.6 282.801C1341.34 283.652 1343.68 287.374 1342.83 291.115L1321.7 384.219Z" fill="#474BFF"/>
</g>
<g clip-path="url(#clip0)">
<path d="M1392.7 867.613V867.8C1392.7 870.2 1390.6 872.2 1388.2 872.2H1312.7L1339.3 921C1358.3 955.8 1377.2 990.5 1396.1 1025.3L1427.4 1082.7C1428.5 1084.7 1427.6 1087.3 1425.5 1088.5L1425.1 1088.7C1423 1089.9 1420.3 1089.2 1419.3 1087.3L1302.2 872.2H1224.2L1107.1 1087.3C1106.1 1089.2 1103.4 1089.8 1101.3 1088.7L1100.9 1088.5C1098.8 1087.3 1097.9 1084.7 1099 1082.7L1130.3 1025.3C1149.3 990.5 1168.2 955.8 1187.1 921L1213.7 872.2H1113.6C1111.1 872.2 1109.1 870.2 1109.1 867.8V867.3C1109.1 864.9 1111.2 862.9 1113.6 862.9H1181.6C1225.9 862.9 1270.3 862.9 1314.7 862.9H1383.87L1392.3 794.7C1398.1 748.3 1403.8 701.8 1409.6 655.3L1419.1 578.5C1419.4 575.8 1421.7 573.8 1424.2 574.1L1424.7 574.2C1427.1 574.5 1428.8 577 1428.5 579.5L1392.8 867.1C1392.77 867.275 1392.74 867.446 1392.7 867.613Z" fill="#D8DEED"/>
<path d="M1392.7 867.613V867.8C1392.7 870.2 1390.6 872.2 1388.2 872.2H1312.7L1339.3 921C1358.3 955.8 1377.2 990.5 1396.1 1025.3L1427.4 1082.7C1428.5 1084.7 1427.6 1087.3 1425.5 1088.5L1425.1 1088.7C1423 1089.9 1420.3 1089.2 1419.3 1087.3L1302.2 872.2H1224.2L1107.1 1087.3C1106.1 1089.2 1103.4 1089.8 1101.3 1088.7L1100.9 1088.5C1098.8 1087.3 1097.9 1084.7 1099 1082.7L1130.3 1025.3C1149.3 990.5 1168.2 955.8 1187.1 921L1213.7 872.2H1113.6C1111.1 872.2 1109.1 870.2 1109.1 867.8V867.3C1109.1 864.9 1111.2 862.9 1113.6 862.9H1181.6C1225.9 862.9 1270.3 862.9 1314.7 862.9H1383.87L1392.3 794.7C1398.1 748.3 1403.8 701.8 1409.6 655.3L1419.1 578.5C1419.4 575.8 1421.7 573.8 1424.2 574.1L1424.7 574.2C1427.1 574.5 1428.8 577 1428.5 579.5L1392.8 867.1C1392.77 867.275 1392.74 867.446 1392.7 867.613Z" fill="#D8DEED"/>
</g>
<g clip-path="url(#clip1)">
<path d="M885.5 1079.51H1046.5C1048.99 1079.51 1051 1081.52 1051 1084.01C1051 1086.49 1048.99 1088.51 1046.5 1088.51H885.5C883.015 1088.51 881 1086.49 881 1084.01C881 1081.52 883.015 1079.51 885.5 1079.51ZM1226.97 1079.69L1324.78 1006.77C1325.49 1006.28 1326.2 1005.99 1327 1006.01C1328.4 1005.93 1329.79 1006.55 1330.67 1007.67L1330.96 1008.18C1332.43 1009.9 1331.98 1012.59 1330.16 1013.96L1230.64 1088.54L1172.03 1088.71C1169.73 1088.67 1167.86 1086.84 1167.8 1084.54L1167.81 1083.94C1167.95 1081.64 1169.79 1079.77 1172.09 1079.81L1226.97 1079.69Z" fill="#DE6903"/>
<path d="M1049.38 1080.53C1048.81 1080.27 1048.17 1080.12 1047.5 1080.12L885.803 1079.5C886.108 1079.43 885.478 1079.5 885.803 1079.5C885.803 1079.17 885.646 1079.01 885.803 1078.39C887.003 1073.59 890.903 1069.59 893.103 1067.59C897.703 1064.69 902.303 1062.19 907.103 1059.89C924.903 1051.29 931.003 1051.39 942.703 1043.59C947.503 1040.29 952.004 1036.59 956.104 1032.49C958.837 1029.75 965.8 1024.83 977 1018.5L1064.5 1018.68L1049.38 1080.53ZM1327.62 1006.64C1326.97 1006.71 1326.38 1006.98 1325.79 1007.39L1227.97 1080.31L1173.09 1080.43C1172.64 1080.42 1172.22 1080.49 1171.82 1080.61C1171.69 1079.97 1171.62 1079.3 1171.63 1078.6C1171.74 1077.9 1171.76 1077.1 1171.97 1076.3C1173.25 1071.53 1177.12 1067.49 1179.36 1065.53C1183.91 1062.71 1188.55 1060.19 1193.39 1057.98C1202.91 1053.42 1209.12 1051.37 1214.59 1049.25C1215.4 1047.86 1216.18 1046.43 1216.92 1044.88C1217.86 1042.9 1218.8 1040.72 1219.74 1038.23C1221.74 1032.77 1223.13 1027.19 1224.13 1021.51L1229 1006.29L1230.5 1001L1291.5 956L1327.62 1006.64Z" fill="#474961"/>
<path d="M1109.08 719.317C1119.07 715.797 1127.1 715.936 1127.1 715.936C1172.1 715.836 1335.4 715.536 1338.2 715.736C1342.2 716.036 1362.55 715.268 1374.7 737.136C1374.8 737.136 1374.8 737.236 1374.8 737.236C1376.6 740.636 1378.5 744.836 1380.2 750.036C1383.4 760.136 1385.6 773.736 1384.6 790.536C1384 797.236 1383.1 811.836 1374.6 825.836C1365.8 840.436 1353.6 850.236 1335.5 856.436C1320.1 861.636 1305 859.236 1286.4 857.536H1286.2C1285.5 857.436 1284.1 857.136 1282.4 856.836L1279 856.236C1277.1 855.836 1275.4 855.536 1274.6 855.436H1274.4C1257.2 852.336 1241.9 849.536 1226.6 846.636L1225.9 846.536C1224.67 846.293 1223.44 846.053 1222.21 845.815C1224.78 849.386 1227.35 852.981 1229.91 856.602C1236.51 865.902 1242.91 875.202 1249.11 884.402L1274.21 919.902C1278.01 925.202 1276.31 932.602 1270.41 936.302L1239.51 955.502L1211.51 974.102L1206.01 977.602C1200.51 981.002 1193.83 979.402 1189.61 975.002C1178.43 963.358 1157.45 935.993 1131.11 906.202C1130.07 905.03 1129.04 903.867 1128.02 902.713C1113.21 930.304 1094.84 966.308 1084.1 984.336C1082 987.936 1077.9 989.836 1073.7 989.236L994.3 977.436C987.5 976.436 983.5 969.136 986.4 962.836C1001.1 930.536 1019.8 879.636 1035.7 845.436C1039.8 836.636 1043.7 827.936 1047.3 819.736C1047.87 818.437 1048.47 817.083 1049.08 815.686C1043.11 807.49 1039.59 801.626 1036.51 794.202C1033.01 785.802 1029.81 778.102 1030.01 767.702C1030.31 752.302 1038.01 734.802 1053.41 725.402C1062.01 720.102 1070.41 719.802 1075.41 719.402C1082.11 719.202 1089.81 719.302 1098.41 719.302C1102.9 719.266 1106.28 719.243 1109.08 719.317Z" fill="#474BFF"/>
<path opacity="0.176986" d="M1107.61 719.287C1095.92 723.649 1081.87 733.075 1074.86 753.436C1074.76 753.624 1059.26 790.949 1048.69 815.154C1042.95 807.234 1039.52 801.464 1036.51 794.202C1033.01 785.802 1029.81 778.102 1030.01 767.702C1030.31 752.302 1038.01 734.802 1053.41 725.402C1062.01 720.102 1070.41 719.802 1075.41 719.402C1082.11 719.202 1089.81 719.302 1098.41 719.302C1102.14 719.272 1105.11 719.251 1107.61 719.287V719.287ZM1221.95 845.45C1224.61 849.14 1227.26 852.858 1229.91 856.602C1236.51 865.902 1242.91 875.202 1249.11 884.402L1274.21 919.902C1278.01 925.202 1276.31 932.602 1270.41 936.302L1239.51 955.502L1211.51 974.102L1206.01 977.602C1200.51 981.002 1193.83 979.402 1189.61 975.002C1178.43 963.358 1157.45 935.993 1131.11 906.202C1129.93 904.873 1128.77 903.556 1127.6 902.251C1131.26 895.43 1134.7 889.125 1137.76 883.736C1137.76 883.736 1140.56 878.736 1146.56 869.236C1151.46 861.436 1156.56 854.636 1160.86 848.936C1163.16 845.836 1166.36 841.536 1170.36 836.536C1174.86 837.136 1179.36 837.736 1183.86 838.436C1190.06 839.536 1196.26 840.736 1202.56 841.836C1209.07 843.02 1215.51 844.205 1221.95 845.45Z" fill="#444444"/>
<path d="M1151.3 815.737C1156.76 823.002 1158.45 825.042 1160.2 826.759C1161.82 828.342 1163.43 830.286 1168.8 837.437C1169.3 838.1 1170.24 838.233 1170.9 837.735C1171.56 837.238 1171.7 836.297 1171.2 835.635C1165.74 828.37 1164.05 826.33 1162.3 824.614C1160.68 823.03 1159.07 821.087 1153.7 813.935C1153.2 813.273 1152.26 813.139 1151.6 813.637C1150.94 814.135 1150.8 815.075 1151.3 815.737Z" fill="#482D1F"/>
<path d="M1258.12 522.277C1276.19 517.095 1294.79 521.63 1308.29 532.843L1309 533.32C1311.07 534.805 1313.37 537.265 1315.76 540.397C1317.49 542.517 1319.07 544.78 1320.47 547.177C1331.26 564.008 1342.48 589.88 1344.01 599.898C1344.01 602.858 1342.19 605.392 1339.61 606.447L1354.97 658.713C1355.91 661.804 1360 674.286 1361 693.277C1361.67 705.938 1355.34 713.558 1342.01 716.138C1326.36 715.976 1300.19 716.269 1263.49 717.016C1226.78 717.764 1204.85 678.065 1197.7 597.92C1189.8 571.709 1202.21 544.45 1225.8 532.852L1222.81 524.157C1222.45 523.113 1223.01 521.975 1224.05 521.615L1252.42 511.848C1253.46 511.488 1254.6 512.043 1254.96 513.088L1258.12 522.277Z" fill="white" stroke="#482D1F" stroke-width="3"/>
<path d="M1244.12 481.081L1252.54 512.515L1224.53 522.161L1222.46 513.973C1222.06 514.181 1221.65 514.395 1221.23 514.612C1213.23 518.872 1213.69 518.521 1213.12 518.783C1207.03 521.132 1201.65 521.597 1200.64 521.602C1192.23 521.883 1180.88 507.691 1174.19 486.172C1173.61 484.424 1173.32 482.644 1172.93 480.875L1170.27 463.157C1169.65 459.2 1170.03 455.138 1171.55 451.459C1172.19 449.883 1172.84 448.407 1173.62 447.219C1182.42 432.418 1201.58 432.918 1205 432.961C1205.4 432.919 1205.81 432.977 1206.21 432.935C1210.08 433.433 1213.39 432.381 1216.96 431.905C1218.55 431.738 1219.98 432.895 1220.24 434.476L1223.42 459.883C1223.65 461.468 1226.7 460.058 1232.57 455.653C1239.85 459.48 1244.25 462.956 1245.79 466.079C1248.33 471.141 1247.3 476.679 1244.59 480.483C1244.43 480.69 1244.28 480.889 1244.12 481.081ZM1139.86 673.414C1153.88 670.023 1169.57 666.239 1186.92 662.061L1196.37 598.666C1196.5 597.233 1196.7 595.544 1197.01 593.646C1197.33 595.082 1197.7 596.517 1198.13 597.95C1207.31 623.179 1215.84 644.567 1223.73 662.115C1244.57 659.093 1264.25 656.794 1278.46 653.604C1278.48 652.248 1277.07 636.19 1274.23 605.43L1337.11 607.614C1337.18 607.617 1337.26 607.618 1337.33 607.619C1338.94 617.898 1339.5 630.538 1339 645.539C1338.05 674.066 1341.15 697.32 1323.63 709.782C1319.55 712.693 1318.38 714.682 1304.35 715.768C1275.01 718.038 1248.37 717.376 1221.35 716.194C1230.57 716.642 1239.73 717.04 1248.97 717.279C1208.16 719.217 1073.3 720.852 1061.53 720.458C1047.64 719.994 1040.62 715.452 1037.81 708.768C1035.55 703.402 1049.23 696.374 1051.32 695.29C1051.74 695.072 1056.15 693.91 1064.56 691.805C1058.27 690.776 1052.73 687.889 1053.1 680.863C1053.1 680.863 1106.33 672.677 1121.18 670.588L1120.84 670.822C1124.38 670.364 1128.13 670.312 1132.2 671.078C1134.45 671.47 1137.01 672.248 1139.86 673.414ZM1211.5 974L1240 955L1270 936.5C1271.64 935.472 1273.54 933.974 1274.5 932.5L1291.5 956L1230.56 1000.91L1211.5 974ZM996 977.5L1072.5 989L1064.5 1019L977 1018.5L996 977.5Z" fill="#BF865F"/>
<path opacity="0.2" d="M1223.32 661.958C1214.27 663.271 1205 664.72 1195.87 666.438C1173.94 670.562 1157.14 673.767 1145.49 676.052C1143.13 674.834 1140.93 673.821 1138.89 673.012C1153.01 669.596 1168.84 665.779 1186.36 661.561L1195.81 598.166C1195.94 596.733 1196.14 595.044 1196.45 593.146C1196.77 594.582 1197.14 596.017 1197.57 597.45C1206.81 622.843 1215.39 644.346 1223.32 661.958ZM1248.41 716.779C1207.6 718.717 1072.74 720.352 1060.97 719.958C1047.08 719.494 1040.06 714.952 1037.25 708.268C1034.99 702.902 1048.67 695.874 1050.76 694.79C1051.18 694.571 1055.65 693.395 1064.17 691.262C1068.89 692.09 1074.09 691.79 1077.47 691.416C1086.82 692.337 1096.07 693.16 1105.42 694.082C1108.35 695.242 1111.29 696.402 1114.23 697.561C1119.09 705.833 1156.76 712.126 1171.39 713.203C1175.87 713.52 1178.57 713.752 1184.74 713.95C1206.64 714.862 1227.32 716.233 1248.41 716.779Z" fill="#8C2A00"/>
<path d="M1191.23 499.106C1191.91 498.834 1193.54 498.06 1193.72 496.934C1193.7 496.736 1193.77 496.427 1193.65 496.238C1193.19 495.683 1191.93 496.118 1190.16 496.505C1187.01 497.138 1184.39 497.111 1184.39 497.111C1184.39 497.111 1185.39 499.016 1185.94 499.461C1187.1 500.948 1190.17 499.52 1191.23 499.106Z" fill="#482D1F"/>
<path d="M1197.05 432.17C1189.27 428.015 1183.82 420.892 1182.92 412.349C1181.36 397.519 1194.12 384.022 1211.43 382.204C1228.73 380.385 1244.02 390.933 1245.58 405.763C1246.52 414.721 1242.23 423.192 1234.88 428.897C1239.18 428.46 1242.6 428.555 1246.62 430.039C1248.08 430.589 1251.54 431.934 1254.79 435.112C1264.06 443.891 1263.72 456.898 1263.72 460.719C1263.32 472.224 1258.03 480.221 1255.92 483.157C1251.02 490.108 1246.5 493.854 1242.36 494.398C1239.96 490.932 1238.07 487.624 1236.69 484.476C1238.43 483.698 1240.86 482.259 1242.68 479.622C1245.3 475.828 1246.34 470.389 1243.81 465.526C1241.51 460.841 1236.14 457.585 1231.41 458.484C1228.74 458.966 1226.81 460.677 1226.54 460.907C1224.15 463.144 1222.7 466.02 1222.2 467.128C1222.21 466.982 1222.21 466.836 1222.22 466.69C1217.45 465.381 1209.59 462.286 1202.7 455.167C1200.34 452.8 1198.47 450.282 1197.03 448.021C1193.17 449.633 1186.84 451.505 1179.23 450.897C1176.53 450.685 1174.13 449.563 1171.98 448.98C1171.97 448.96 1171.96 448.95 1171.96 448.95C1171.83 448.662 1173.08 446.918 1173.06 446.719C1178.95 436.551 1189.98 433.226 1197.05 432.17Z" fill="#482D1F"/>
<path d="M1223.4 519.454L1232.14 507.82L1221.89 513.455L1223.4 519.454Z" fill="#482D1F"/>
<path d="M1277.43 654.657C1276.67 654.345 1276.3 653.47 1276.61 652.702C1276.92 651.935 1277.8 651.567 1278.57 651.879L1292.07 657.379C1292.83 657.692 1293.2 658.567 1292.89 659.334C1292.58 660.102 1291.7 660.47 1290.93 660.157L1277.43 654.657ZM1274.77 603.141C1275.22 603.832 1275.03 604.763 1274.34 605.22C1273.65 605.677 1272.72 605.487 1272.26 604.796C1264.28 592.71 1260.21 578.704 1260.52 564.237C1260.53 563.408 1261.22 562.751 1262.05 562.768C1262.88 562.786 1263.53 563.472 1263.52 564.3C1263.22 578.157 1267.11 591.564 1274.77 603.141Z" fill="#482D1F"/>
<path d="M1181.72 481.237L1181.71 481.092L1181.71 481.165L1181.72 481.237ZM1181.63 491.859L1181.64 491.97C1181.75 493.056 1182.6 493.986 1183.7 494.052C1183.9 494.051 1184.01 494.047 1184.13 494.043C1185.18 494 1185.94 493.931 1188.65 493.647C1189.2 493.589 1189.6 493.097 1189.54 492.547C1189.48 491.998 1188.99 491.6 1188.44 491.658C1185.78 491.937 1185.04 492.004 1184.05 492.044C1183.94 492.048 1183.84 492.052 1183.73 492.055C1183.76 492.052 1183.66 491.946 1183.63 491.8L1183.71 481.106L1183.7 480.961L1182.88 475.114C1182.8 474.567 1182.3 474.186 1181.75 474.262C1181.21 474.338 1180.82 474.844 1180.9 475.391L1181.71 481.165L1181.63 491.859Z" fill="#482D1F"/>
</g>
<path d="M1027.55 706.509C1028.54 708.27 1030.44 709.46 1032.6 709.46H1176.3C1179.5 709.46 1182 706.86 1182 703.66C1182 700.46 1179.4 697.86 1176.3 697.86H1036.52L987.8 566.76C986.7 563.76 983.4 562.26 980.4 563.36C977.4 564.46 975.9 567.76 977 570.76L1027.1 705.56C1027.22 705.896 1027.37 706.213 1027.55 706.509Z" fill="#474961"/>
<path d="M1378.01 709H946.993C945.34 709 944 712.134 944 716C944 719.866 945.34 723 946.993 723H1378.01C1379.66 723 1381 719.866 1381 716C1381 712.134 1379.66 709 1378.01 709Z" fill="#D8DEED"/>
<g clip-path="url(#clip2)">
<path d="M574.441 869.234L571.223 942.133H550.408L540.417 898.707L547.542 895.5L560.012 931.406L563.869 869.234H574.441Z" fill="#D8DEED"/>
<mask id="mask0" mask-type="alpha" maskUnits="userSpaceOnUse" x="479" y="748" width="154" height="297">
<path d="M528.265 942.133H587.734C591.271 942.133 594.138 944.999 594.138 948.534V1016.65C594.138 1032.31 581.44 1045 565.776 1045H550.223C534.559 1045 521.861 1032.31 521.861 1016.65V948.534C521.861 944.999 524.728 942.133 528.265 942.133ZM479.403 830.031C479.276 828.484 479.396 826.927 479.759 825.418C481.647 817.561 489.551 812.722 497.411 814.61C504.528 816.318 511.001 819.37 516.829 823.765C527.259 831.63 530.149 839.657 525.497 847.845C540.656 847.845 549.496 853.602 552.015 865.115C556.966 887.74 556.966 906.792 547.443 911.757C531.132 920.263 515.569 907.297 506.157 895.5C499.882 887.635 498.672 875.585 502.527 859.348C494.628 858.223 488.552 854.389 484.297 847.845C481.679 843.818 480.047 837.88 479.403 830.031ZM629.793 850.391C632.717 852.329 633.55 856.36 632.292 862.486C631.323 867.204 629.086 871.569 625.822 875.112L611.876 890.252C616.325 900.726 614.894 908.541 607.585 913.696C593.222 923.827 579.904 929.477 573.638 924.37C562.905 915.622 567.987 895.804 573.472 885.802C577.128 879.134 585.002 876.464 597.094 877.792C599.755 867.534 602.749 859.964 606.075 855.084C611.064 847.763 623.659 846.326 629.793 850.391ZM556.941 757.369C557.645 755.869 558.599 754.499 559.763 753.318C565.435 747.561 574.703 747.489 580.464 753.158C585.4 758.015 589.044 763.865 591.396 770.706C595.643 783.055 593.741 794.531 585.691 805.132C598.258 813.604 602.365 823.317 598.012 834.27C589.458 855.794 578.799 871.588 568.126 870.383C549.844 868.318 541.042 842.649 539.839 827.609C539.037 817.582 545.828 808.989 560.211 801.831C555.689 788.522 553.495 777.966 553.629 770.163C553.698 766.192 554.801 761.927 556.941 757.369Z" fill="white"/>
</mask>
<g mask="url(#mask0)">
<path d="M528.265 942.133H587.734C591.271 942.133 594.138 944.999 594.138 948.534V1016.65C594.138 1032.31 581.44 1045 565.776 1045H550.223C534.559 1045 521.861 1032.31 521.861 1016.65V948.534C521.861 944.999 524.728 942.133 528.265 942.133ZM479.403 830.031C479.276 828.484 479.396 826.927 479.759 825.418C481.647 817.561 489.551 812.722 497.411 814.61C504.528 816.318 511.001 819.37 516.829 823.765C527.259 831.63 530.149 839.657 525.497 847.845C540.656 847.845 549.496 853.602 552.015 865.115C556.966 887.74 556.966 906.792 547.443 911.757C531.132 920.263 515.569 907.297 506.157 895.5C499.882 887.635 498.672 875.585 502.527 859.348C494.628 858.223 488.552 854.389 484.297 847.845C481.679 843.818 480.047 837.88 479.403 830.031ZM629.793 850.391C632.717 852.329 633.55 856.36 632.292 862.486C631.323 867.204 629.086 871.569 625.822 875.112L611.876 890.252C616.325 900.726 614.894 908.541 607.585 913.696C593.222 923.827 579.904 929.477 573.638 924.37C562.905 915.622 567.987 895.804 573.472 885.802C577.128 879.134 585.002 876.464 597.094 877.792C599.755 867.534 602.749 859.964 606.075 855.084C611.064 847.763 623.659 846.326 629.793 850.391ZM556.941 757.369C557.645 755.869 558.599 754.499 559.763 753.318C565.435 747.561 574.703 747.489 580.464 753.158C585.4 758.015 589.044 763.865 591.396 770.706C595.643 783.055 593.741 794.531 585.691 805.132C598.258 813.604 602.365 823.317 598.012 834.27C589.458 855.794 578.799 871.588 568.126 870.383C549.844 868.318 541.042 842.649 539.839 827.609C539.037 817.582 545.828 808.989 560.211 801.831C555.689 788.522 553.495 777.966 553.629 770.163C553.698 766.192 554.801 761.927 556.941 757.369Z" fill="#E1E5F0"/>
<path d="M561.7 905.675C559.943 907.789 556.901 908.511 552.297 907.448C511.896 898.127 481.242 792.333 512.325 770.167C519.221 765.249 508.517 794.379 516.027 804.229C534.14 827.983 559.358 871.306 563.123 893.694C567.044 885.7 575.789 877.827 582.128 869.234C596.778 849.375 611.67 828.608 626.911 837.896C651.041 852.602 570.04 931.494 561.7 905.675ZM625.282 709.157C663.453 708.152 609.888 875.615 581.61 845.308C553.332 815 587.111 710.162 625.282 709.157ZM516.83 963.621H598.712V1014.83H516.83V963.621Z" fill="#F2F6FB"/>
</g>
</g>
<defs>
<clipPath id="clip0">
<path d="M1098 574H1429V1089H1098V574Z" fill="white"/>
</clipPath>
<clipPath id="clip1">
<rect x="872" y="332" width="522" height="756" fill="white"/>
</clipPath>
<clipPath id="clip2">
<path d="M472 746H644V1045H472V746Z" fill="white"/>
</clipPath>
</defs>
</svg>
