<?xml version="1.0" encoding="UTF-8"?>
<svg width="640px" height="360px" viewBox="0 0 640 360" version="1.1" xmlns="http://www.w3.org/2000/svg" xmlns:xlink="http://www.w3.org/1999/xlink">
    <!-- Generator: Sketch 57.1 (83088) - https://sketch.com -->
    <title>illustration copy@2x</title>
    <desc>Created with Sketch.</desc>
    <defs>
        <linearGradient x1="-15.2622068%" y1="50.8388327%" x2="69.3722339%" y2="49.7533133%" id="linearGradient-1">
            <stop stop-color="#D1D3D4" stop-opacity="0" offset="0%"></stop>
            <stop stop-color="#BCBEC0" offset="100%"></stop>
        </linearGradient>
        <linearGradient x1="-0.00176748286%" y1="50.0002561%" x2="100.001767%" y2="50.0002561%" id="linearGradient-2">
            <stop stop-color="#D1D3D4" stop-opacity="0" offset="0%"></stop>
            <stop stop-color="#BCBEC0" offset="100%"></stop>
        </linearGradient>
    </defs>
    <g id="illustration-copy" stroke="none" stroke-width="1" fill="none" fill-rule="evenodd">
        <path d="M375.350454,189.623655 L229.443846,358.42798 C227.630474,360.686231 224.890612,362 221.994405,362 C219.098199,362 216.358336,360.686231 214.544965,358.42798 L68.6476691,189.623655 C64.5330186,184.614967 64.5330186,177.396199 68.6476691,172.387511 L214.554277,3.58318563 C216.363701,1.31857227 219.105012,0 222.003717,0 C224.902422,0 227.643733,1.31857227 229.453158,3.58318563 L375.350454,172.387511 C379.465104,177.396199 379.465104,184.614967 375.350454,189.623655 Z" id="Path-Copy-2" fill="url(#linearGradient-1)" fill-rule="nonzero" opacity="0.15"></path>
        <path d="M583.560454,189.623655 L437.653846,358.42798 C435.840474,360.686231 433.100612,362 430.204405,362 C427.308199,362 424.568336,360.686231 422.754965,358.42798 L276.857669,189.623655 C272.743019,184.614967 272.743019,177.396199 276.857669,172.387511 L422.764277,3.58318563 C424.573701,1.31857227 427.315012,0 430.213717,0 C433.112422,0 435.853733,1.31857227 437.663158,3.58318563 L583.560454,172.387511 C587.675104,177.396199 587.675104,184.614967 583.560454,189.623655 Z" id="Path-Copy-3" fill="url(#linearGradient-2)" fill-rule="nonzero" opacity="0.15"></path>
        <rect id="Rectangle" fill="#D1D3D4" fill-rule="nonzero" x="117" y="338" width="400" height="3"></rect>
        <rect id="Rectangle-Copy-154" fill="#939598" fill-rule="nonzero" x="117" y="338" width="115" height="3"></rect>
        <rect id="Rectangle-Copy-155" fill="#939598" fill-rule="nonzero" x="362" y="338" width="91" height="3"></rect>
        <rect id="Rectangle-Copy-156" fill="#939598" fill-rule="nonzero" x="503" y="338" width="15" height="3"></rect>
        <rect id="Rectangle" fill="#D8D8D8" x="148" y="121" width="370" height="217"></rect>
        <polygon id="Rectangle-Copy-4" fill="#F2F3F3" points="157 130 509 130 509 329 157 329"></polygon>
        <rect id="Rectangle" fill="#8DBFFF" x="166" y="138" width="92" height="92"></rect>
        <rect id="Rectangle" fill="#F99316" x="274" y="138" width="79" height="16"></rect>
        <rect id="Rectangle-Copy-5" fill="#7468D3" x="274" y="164" width="79" height="3"></rect>
        <rect id="Rectangle-Copy-7" fill="#7468D3" x="274" y="178" width="41" height="3"></rect>
        <rect id="Rectangle-Copy-9" fill="#7468D3" x="274" y="192" width="116" height="3"></rect>
        <rect id="Rectangle-Copy-10" fill="#F99316" x="166" y="254" width="116" height="3"></rect>
        <rect id="Rectangle-Copy-16" fill="#1A73E8" x="166" y="281" width="116" height="3"></rect>
        <rect id="Rectangle-Copy-27" fill="#7468D3" x="166" y="308" width="39" height="3"></rect>
        <rect id="Rectangle-Copy-31" fill="#1A73E8" x="236" y="308" width="99" height="3"></rect>
        <rect id="Rectangle-Copy-20" fill="#1A73E8" x="332" y="281" width="24" height="3"></rect>
        <rect id="Rectangle-Copy-25" fill="#7468D3" x="434" y="281" width="11" height="3"></rect>
        <rect id="Rectangle-Copy-35" fill="#7468D3" x="414" y="308" width="31" height="3"></rect>
        <rect id="Rectangle-Copy-36" fill="#F99316" x="450" y="308" width="31" height="3"></rect>
        <rect id="Rectangle-Copy-26" fill="#3DBA85" x="448" y="281" width="45" height="3"></rect>
        <rect id="Rectangle-Copy-12" fill="#7468D3" x="322" y="254" width="36" height="3"></rect>
        <rect id="Rectangle-Copy-15" fill="#F99316" x="410" y="254" width="74" height="3"></rect>
        <rect id="Rectangle" fill="#1A73E8" x="293" y="254" width="3" height="3"></rect>
        <rect id="Rectangle-Copy-17" fill="#7468D3" x="293" y="281" width="3" height="3"></rect>
        <rect id="Rectangle-Copy-28" fill="#1A73E8" x="211" y="308" width="3" height="3"></rect>
        <rect id="Rectangle-Copy-29" fill="#F99316" x="219" y="308" width="3" height="3"></rect>
        <rect id="Rectangle-Copy-30" fill="#3DBA85" x="227" y="308" width="3" height="3"></rect>
        <rect id="Rectangle-Copy-6" fill="#1A73E8" x="307" y="254" width="3" height="3"></rect>
        <rect id="Rectangle-Copy-18" fill="#7468D3" x="307" y="281" width="3" height="3"></rect>
        <rect id="Rectangle-Copy-19" fill="#7468D3" x="321" y="281" width="3" height="3"></rect>
        <rect id="Rectangle-Copy-32" fill="#1A73E8" x="340" y="308" width="3" height="3"></rect>
        <rect id="Rectangle-Copy-33" fill="#1A73E8" x="369" y="308" width="3" height="3"></rect>
        <rect id="Rectangle-Copy-34" fill="#F99316" x="402" y="308" width="3" height="3"></rect>
        <rect id="Rectangle-Copy-21" fill="#7468D3" x="369" y="281" width="3" height="3"></rect>
        <rect id="Rectangle-Copy-22" fill="#1A73E8" x="386" y="281" width="3" height="3"></rect>
        <rect id="Rectangle-Copy-23" fill="#F99316" x="403" y="281" width="3" height="3"></rect>
        <rect id="Rectangle-Copy-24" fill="#3DBA85" x="417" y="281" width="3" height="3"></rect>
        <rect id="Rectangle-Copy-8" fill="#F99316" x="369" y="254" width="3" height="3"></rect>
        <rect id="Rectangle-Copy-13" fill="#F99316" x="386" y="254" width="3" height="3"></rect>
        <rect id="Rectangle-Copy-14" fill="#F99316" x="403" y="254" width="3" height="3"></rect>
        <rect id="Rectangle-Copy-11" fill="#1A73E8" x="274" y="216" width="136" height="14"></rect>
        <rect id="Rectangle" fill="#E2DFFF" x="90" y="262" width="101" height="49"></rect>
        <path d="M114.459658,287.55814 L129,293.44186 L129,298 L110,289.186047 L110,285.790698 L129,277 L129,281.55814 L114.459658,287.55814 Z M135.528721,305 L132,305 L145.493473,269 L149,269 L135.528721,305 Z M166.706089,287.44186 L152,281.418605 L152,277 L171,285.790698 L171,289.186047 L152,298 L152,293.534884 L166.706089,287.44186 Z" id="&lt;/&gt;-copy-3" fill="#7468D3" fill-rule="nonzero"></path>
        <g id="Group-2" transform="translate(17.000000, 95.000000)">
            <rect id="Rectangle-Copy-43" fill="#A6A6A6" x="4" y="4" width="100" height="96.969697"></rect>
            <rect id="Rectangle" fill="#F2F3F3" x="0" y="0" width="100" height="96.969697"></rect>
            <rect id="Rectangle-Copy-37" fill="#756AD3" x="0" y="0" width="100" height="20.6060606"></rect>
            <circle id="Oval" fill="#FFFFFF" cx="88.4848485" cy="10.3030303" r="3.03030303"></circle>
            <circle id="Oval-Copy" fill="#FFFFFF" cx="79.3939394" cy="10.3030303" r="3.03030303"></circle>
            <circle id="Oval-Copy-2" fill="#FFFFFF" cx="70.3030303" cy="10.3030303" r="3.03030303"></circle>
            <rect id="Rectangle" fill="#F99316" x="7.27272727" y="25.4545455" width="30.9090909" height="30.9090909"></rect>
            <rect id="Rectangle" fill="#F99316" x="43.030303" y="27.8787879" width="30.3030303" height="1.81818182"></rect>
            <rect id="Rectangle-Copy-40" fill="#7468D3" x="37.5757576" y="77.5757576" width="30.3030303" height="1.81818182"></rect>
            <rect id="Rectangle-Copy-41" fill="#7468D3" x="21.8181818" y="84.8484848" width="61.2121212" height="1.81818182"></rect>
            <rect id="Rectangle-Copy-42" fill="#7468D3" x="27.8787879" y="90.3030303" width="49.0909091" height="1.81818182"></rect>
            <rect id="Rectangle-Copy-38" fill="#F99316" x="43.030303" y="35.1515152" width="13.3333333" height="1.81818182"></rect>
            <rect id="Rectangle-Copy-39" fill="#F99316" x="43.030303" y="42.4242424" width="44.8484848" height="1.81818182"></rect>
            <rect id="Rectangle" fill="#1A73E8" x="32.7272727" y="64.2424242" width="43.6363636" height="7.87878788"></rect>
        </g>
        <g id="Group-3" transform="translate(545.000000, 251.000000)">
            <polygon id="Path-18-Copy" fill="#C2C2C2" points="5.69607843 0 5.69607843 65.9117647 83 65.9117647 83 13.8333333 33.0190162 13.8333333 28.0209178 0"></polygon>
            <polygon id="Path-18" fill="#EDEDED" points="0 4.88235294 0 70.7941176 77.3039216 70.7941176 77.3039216 18.7156863 27.3229378 18.7156863 22.3248394 4.88235294"></polygon>
            <polygon id="Rectangle" fill="#F99316" transform="translate(11.043124, 27.666667) rotate(-90.000000) translate(-11.043124, -27.666667) " points="6.97449636 23.5980392 15.1117513 23.5980392 15.1117513 31.7352941 6.97449636 31.7352941"></polygon>
            <polygon id="Rectangle-Copy-2" fill="#F99316" transform="translate(26.503908, 27.666667) rotate(-90.000000) translate(-26.503908, -27.666667) " points="22.4352807 23.5980392 30.5725356 23.5980392 30.5725356 31.7352941 22.4352807 31.7352941"></polygon>
            <polygon id="Rectangle-Copy-3" fill="#F99316" transform="translate(41.964692, 27.666667) rotate(-90.000000) translate(-41.964692, -27.666667) " points="37.896065 23.5980392 46.0333199 23.5980392 46.0333199 31.7352941 37.896065 31.7352941"></polygon>
            <rect id="Rectangle" fill="#1A73E8" x="50.1019473" y="24.4117647" width="21.1568627" height="3.25490196"></rect>
            <rect id="Rectangle-Copy-4" fill="#1A73E8" x="50.1019473" y="28.4803922" width="21.1568627" height="3.25490196"></rect>
            <rect id="Rectangle" fill="#F99316" opacity="0.55187407" x="6.91666667" y="54.5196078" width="64.2843137" height="11.3921569"></rect>
            <rect id="Rectangle" fill="#1A73E8" opacity="0.3226609" x="6.91666667" y="38.245098" width="62.6568627" height="3.25490196"></rect>
            <rect id="Rectangle-Copy-5" fill="#1A73E8" opacity="0.3226609" x="6.91666667" y="48.0098039" width="62.6568627" height="3.25490196"></rect>
            <rect id="Rectangle-Copy-7" fill="#1A73E8" x="6.91666667" y="38.245098" width="32.5490196" height="3.25490196"></rect>
            <rect id="Rectangle-Copy-6" fill="#1A73E8" x="6.91666667" y="48.0098039" width="48.0098039" height="3.25490196"></rect>
        </g>
        <g id="Group-4-Copy" transform="translate(551.000000, 66.000000)" fill-rule="nonzero">
            <polygon id="Path" fill="#F99316" points="35.52 7.88 35.52 42.87 2.27373675e-13 42.87 2.27373675e-13 -5.32907052e-14 27.64 -5.32907052e-14"></polygon>
            <polygon id="Path" fill="#333333" opacity="0.5" points="26.55 8.98 27.64 0 35.52 7.88"></polygon>
            <polygon id="Path" fill="#F99316" points="27.64 7.88 27.64 5.72875081e-14 35.52 7.88"></polygon>
            <polygon id="Path" fill="#F2F2F2" points="11.95 20.9 6.58 23.18 11.95 25.54 11.95 27.54 4.49 23.99 4.49 22.35 11.95 18.86"></polygon>
            <polygon id="Path" fill="#F2F2F2" points="15.22 28.09 13.37 27.43 21.19 14.78 23.03 15.44"></polygon>
            <polygon id="Path" fill="#F2F2F2" points="28.94 23.18 23.58 20.92 23.58 18.92 31.04 22.41 31.04 24.05 23.58 27.6 23.58 25.6"></polygon>
        </g>
        <g id="Group-6-Copy" transform="translate(90.000000, 206.000000)" fill-rule="nonzero">
            <polygon id="Path" fill="#0562E8" points="29.32 6.51 29.32 35.39 -1.70530257e-13 35.39 -1.70530257e-13 4.97379915e-14 22.81 4.97379915e-14"></polygon>
            <polygon id="Path" fill="#333333" opacity="0.5" points="21.91 7.41 22.81 4.26325641e-14 29.32 6.51"></polygon>
            <polygon id="Path" fill="#0562E8" points="22.81 6.51 22.81 -7.10542736e-15 29.32 6.51"></polygon>
            <polygon id="Path" fill="#F2F2F2" points="9.86 17.25 5.41 19.11 9.84 21.11 9.84 22.79 3.68 19.86 3.68 18.51 9.84 15.62"></polygon>
            <polygon id="Path" fill="#F2F2F2" points="12.56 23.19 11.03 22.64 17.49 12.2 19.01 12.75"></polygon>
            <polygon id="Path" fill="#F2F2F2" points="23.89 19.11 19.46 17.25 19.46 15.58 25.62 18.47 25.62 19.82 19.46 22.75 19.46 21.07"></polygon>
        </g>
        <g id="Group-2-Copy" transform="translate(151.000000, 57.000000)">
            <rect id="Rectangle" fill="#A8C5EB" x="0" y="0" width="120" height="3"></rect>
            <rect id="Rectangle-Copy-10" fill="#1A73E8" x="0" y="19" width="25" height="3"></rect>
            <rect id="Rectangle-Copy-13" fill="#A8C5EB" x="0" y="37" width="18" height="3"></rect>
            <rect id="Rectangle-Copy-15" fill="#A8C5EB" x="0" y="46" width="55" height="3"></rect>
            <rect id="Rectangle-Copy-17" fill="#1A73E8" x="0" y="56" width="74" height="3"></rect>
            <rect id="Rectangle-Copy-18" fill="#A8C5EB" x="81" y="56" width="30" height="3"></rect>
            <rect id="Rectangle-Copy-16" fill="#1A73E8" x="62" y="46" width="18" height="3"></rect>
            <rect id="Rectangle-Copy-14" fill="#A8C5EB" x="36" y="37" width="74" height="3"></rect>
            <rect id="Rectangle-Copy-12" fill="#A8C5EB" x="0" y="29" width="65" height="3"></rect>
            <rect id="Rectangle-Copy-11" fill="#A8C5EB" x="76" y="19" width="39" height="3"></rect>
            <rect id="Rectangle-Copy-8" fill="#A8C5EB" x="0" y="10" width="44" height="3"></rect>
            <rect id="Rectangle-Copy-9" fill="#A8C5EB" x="51" y="10" width="18" height="3"></rect>
        </g>
        <rect id="Rectangle" fill="#D8D8D8" x="315" y="57" width="194" height="59"></rect>
        <polygon id="Rectangle-Copy-44" fill="#F2F3F3" points="317 59 507 59 507 114 317 114"></polygon>
        <rect id="Rectangle" fill="#756AD3" x="372" y="63" width="131" height="7"></rect>
        <rect id="Rectangle-Copy-45" fill="#756AD3" x="372" y="102" width="131" height="7"></rect>
        <rect id="Rectangle-Copy-46" fill="#756AD3" x="372" y="83" width="131" height="7"></rect>
        <rect id="Rectangle" fill="#E2DFFF" x="320" y="63" width="42" height="46"></rect>
        <g id="gear-(1)-copy" transform="translate(410.000000, 141.000000)" fill="#CACACA" fill-rule="nonzero">
            <path d="M78.1176758,30.8911133 L71.9689941,29.5544434 C71.4343262,27.9174805 70.7720947,26.3208008 69.9902344,24.7827148 L73.394165,19.487915 C74.0020752,18.5418702 73.8684081,17.2998047 73.0737305,16.5051269 L63.4948731,6.92626953 C62.7001953,6.13159187 61.4581298,5.99792484 60.512085,6.605835 L55.2172852,10.0097656 C53.6791992,9.22790531 52.0825195,8.56567375 50.4455566,8.03100594 L49.1088867,1.88232422 C48.8702392,0.783691406 47.8973389,0 46.7730713,0 L33.2269288,0 C32.1026611,0 31.1297608,0.783691406 30.8911133,1.88232422 L29.5544434,8.03100594 C27.9174805,8.56567375 26.3208008,9.22790531 24.7827148,10.0097656 L19.487915,6.605835 C18.5418702,5.99792484 17.2998047,6.13159187 16.5051269,6.92626953 L6.92626953,16.5051269 C6.13159187,17.2998047 5.99792484,18.5418702 6.605835,19.487915 L10.0097656,24.7827148 C9.22790531,26.3208008 8.56567375,27.9174805 8.03100594,29.5544434 L1.88232422,30.8911133 C0.783691406,31.1303711 0,32.1026611 0,33.2269288 L0,46.7730713 C0,47.8973389 0.783691406,48.8696289 1.88232422,49.1088867 L8.03100594,50.4455566 C8.56567375,52.0825195 9.22790531,53.6791992 10.0097656,55.2172852 L6.605835,60.512085 C5.99792484,61.4581298 6.13159187,62.7001953 6.92626953,63.4948731 L16.5051269,73.0737305 C17.2998047,73.8684081 18.5418702,74.0020752 19.487915,73.394165 L24.7827148,69.9902344 C26.3208008,70.7720947 27.9174805,71.4343262 29.5544434,71.9689941 L30.8911133,78.1176758 C31.1297608,79.2163086 32.1026611,80 33.2269288,80 L46.7730713,80 C47.8973389,80 48.8702392,79.2163086 49.1088867,78.1176758 L50.4455566,71.9689941 C52.0825195,71.4343262 53.6791992,70.7720947 55.2172852,69.9902344 L60.512085,73.394165 C61.4581298,74.0020752 62.7001953,73.8690186 63.4948731,73.0737305 L73.0737305,63.4948731 C73.8684081,62.7001953 74.0020752,61.4581298 73.394165,60.512085 L69.9902344,55.2172852 C70.7720947,53.6791992 71.4343262,52.0825195 71.9689941,50.4455566 L78.1176758,49.1088867 C79.2163086,48.8696289 80,47.8973389 80,46.7730713 L80,33.2269288 C80,32.1026611 79.2163086,31.1303711 78.1176758,30.8911133 Z M54.3426514,40 C54.3426514,47.9083252 47.9083252,54.3426514 40,54.3426514 C32.0916748,54.3426514 25.6573486,47.9083252 25.6573486,40 C25.6573486,32.0916748 32.0916748,25.6573486 40,25.6573486 C47.9083252,25.6573486 54.3426514,32.0916748 54.3426514,40 Z" id="Shape"></path>
        </g>
    </g>
</svg>