<?xml version="1.0" encoding="utf-8"?>
<!-- Generator: Adobe Illustrator 16.0.2, SVG Export Plug-In . SVG Version: 6.00 Build 0)  -->
<!DOCTYPE svg PUBLIC "-//W3C//DTD SVG 1.1//EN" "http://www.w3.org/Graphics/SVG/1.1/DTD/svg11.dtd">
<svg version="1.1" xmlns="http://www.w3.org/2000/svg" xmlns:xlink="http://www.w3.org/1999/xlink" x="0px" y="0px" width="500px"
	 height="500px" viewBox="0 0 500 500" enable-background="new 0 0 500 500" xml:space="preserve">
<g id="BACKGROUND">
</g>
<g id="OBJECTS">
	<path fill="#006D7B" d="M432.918,424.611H54.452V188.063c0-8.247,6.686-14.933,14.932-14.933h348.603
		c8.245,0,14.932,6.687,14.932,14.933V424.611z"/>
	<path fill="#FFFFFF" d="M64.846,408.141v-218.54c0-3.356,2.72-6.077,6.078-6.077h345.524c3.356,0,6.076,2.721,6.076,6.077v218.54
		c0,3.356-2.72,6.079-6.076,6.079H70.924C67.565,414.22,64.846,411.498,64.846,408.141z"/>
	<g>
		<path fill="#C2C2C2" d="M216.181,250.34H91.172c-7.91,0-14.322-6.412-14.322-14.322l0,0c0-7.91,6.412-14.323,14.322-14.323
			h125.009c7.91,0,14.324,6.413,14.324,14.323l0,0C230.505,243.928,224.091,250.34,216.181,250.34z"/>
	</g>
	<path fill="#ABF9FF" d="M416.448,183.525H70.924c-3.358,0-6.078,2.721-6.078,6.077v9.596h357.679v-9.596
		C422.524,186.246,419.805,183.525,416.448,183.525z"/>
	<g>
		<circle fill="#006D7B" cx="75.526" cy="191.362" r="3.32"/>
		<circle fill="#006D7B" cx="90.971" cy="191.362" r="3.319"/>
		<circle fill="#006D7B" cx="106.414" cy="191.362" r="3.32"/>
	</g>
	<g>
		<path fill="#535373" d="M188.018,274.907H79.398c-1.408,0-2.549-1.142-2.549-2.551l0,0c0-1.406,1.141-2.549,2.549-2.549h108.619
			c1.407,0,2.549,1.143,2.549,2.549l0,0C190.566,273.765,189.425,274.907,188.018,274.907z"/>
		<path fill="#535373" d="M188.018,289.738H79.398c-1.408,0-2.549-1.142-2.549-2.55l0,0c0-1.407,1.141-2.548,2.549-2.548h108.619
			c1.407,0,2.549,1.141,2.549,2.548l0,0C190.566,288.596,189.425,289.738,188.018,289.738z"/>
		<path fill="#535373" d="M188.018,304.569H79.398c-1.408,0-2.549-1.141-2.549-2.551l0,0c0-1.407,1.141-2.549,2.549-2.549h108.619
			c1.407,0,2.549,1.142,2.549,2.549l0,0C190.566,303.428,189.425,304.569,188.018,304.569z"/>
		<path fill="#535373" d="M121.571,319.399H79.398c-1.408,0-2.549-1.143-2.549-2.551l0,0c0-1.407,1.141-2.548,2.549-2.548h42.173
			c1.41,0,2.551,1.141,2.551,2.548l0,0C124.122,318.256,122.981,319.399,121.571,319.399z"/>
	</g>
	<path fill="#C2C2C2" d="M444.562,443.569H42.812c-6.572,0-11.899-5.33-11.899-11.896v-7.062h425.546v7.062
		C456.458,438.239,451.131,443.569,444.562,443.569z"/>
	<g>
		<rect x="247.512" y="221.695" fill="#C2C2C2" width="64.479" height="64.477"/>
	</g>
	<g>
		<rect x="247.512" y="305.817" fill="#C2C2C2" width="64.479" height="64.476"/>
	</g>
	<rect x="249.6" y="173.13" opacity="0.3" width="22.065" height="251.48"/>
	
		<line fill="none" stroke="#333745" stroke-width="0.942" stroke-miterlimit="10" x1="7.948" y1="444.013" x2="481.339" y2="444.013"/>
	<path fill="#006D7B" d="M164.24,236.011H39.229c-7.907,0-14.32-6.413-14.32-14.323l0,0c0-7.91,6.413-14.322,14.32-14.322H164.24
		c7.911,0,14.322,6.412,14.322,14.322l0,0C178.563,229.599,172.151,236.011,164.24,236.011z"/>
	<g>
		<circle fill="none" stroke="#FFFFFF" stroke-width="0.942" stroke-miterlimit="10" cx="159.945" cy="219.913" r="5.156"/>
		
			<line fill="none" stroke="#FFFFFF" stroke-width="0.942" stroke-miterlimit="10" x1="163.591" y1="223.56" x2="168.652" y2="228.62"/>
	</g>
	<g>
		<path fill="#3C57AB" d="M146.809,387.882H71.055v-27.8c0-3.449,2.795-6.247,6.245-6.247h63.262c3.448,0,6.247,2.798,6.247,6.247
			V387.882z"/>
		<path opacity="0.3" d="M140.548,387.882H77.312v-25.777c0-1.382,1.117-2.501,2.497-2.501h58.244c1.38,0,2.495,1.119,2.495,2.501
			V387.882z"/>
		<path fill="#FFB700" d="M114.071,391.852h3.853v-7.936h-3.853c-2.645,0-3.97-3.197-2.101-5.067l2.727-2.727l-5.61-5.608
			l-2.725,2.727c-1.87,1.87-5.066,0.542-5.066-2.1v-3.854h-7.934v3.854c0,2.642-3.197,3.97-5.069,2.1l-2.725-2.727l-5.609,5.608
			l2.725,2.727c1.87,1.87,0.547,5.067-2.098,5.067h-3.854v7.936h3.854c2.645,0,3.968,3.197,2.098,5.067l-2.725,2.722l5.609,5.608
			l2.725-2.723c1.872-1.869,5.069-0.545,5.069,2.098v3.854h7.934v-3.854c0-2.643,3.196-3.967,5.066-2.098l2.725,2.723l5.61-5.608
			l-2.727-2.722C110.102,395.049,111.427,391.852,114.071,391.852z M97.327,394.33c-3.559,0-6.446-2.886-6.446-6.447
			c0-3.557,2.888-6.442,6.446-6.442c3.563,0,6.445,2.886,6.445,6.442C103.772,391.444,100.89,394.33,97.327,394.33z"/>
		<path fill="#FFB700" d="M119.422,401.631l19.15-19.153c1.194-1.195,2.824-1.896,4.511-1.817c2.133,0.107,4.299-0.647,5.93-2.276
			c1.768-1.772,2.513-4.175,2.24-6.48c-0.066-0.546-0.748-0.772-1.139-0.381l-4.234,4.231c-0.652,0.652-1.603,0.906-2.496,0.671
			l-1.321-0.354c-0.892-0.24-1.587-0.938-1.826-1.83l-0.355-1.324c-0.238-0.888,0.016-1.843,0.667-2.495l4.239-4.235
			c0.387-0.387,0.165-1.065-0.379-1.133c-2.672-0.319-5.478,0.728-7.274,3.152c-1.088,1.47-1.583,3.268-1.49,5.035
			c0.09,1.702-0.663,3.335-1.866,4.538l-19.055,19.055c-1.203,1.203-2.839,1.955-4.538,1.866c-1.768-0.093-3.565,0.4-5.035,1.493
			c-2.425,1.793-3.475,4.599-3.152,7.271c0.064,0.544,0.746,0.765,1.133,0.379l4.235-4.235c0.653-0.654,1.605-0.906,2.495-0.671
			l1.324,0.354c0.893,0.24,1.587,0.936,1.827,1.825l0.354,1.322c0.239,0.894-0.017,1.845-0.67,2.496l-4.231,4.237
			c-0.391,0.391-0.165,1.069,0.384,1.137c2.305,0.274,4.707-0.471,6.478-2.239c1.628-1.63,2.386-3.797,2.282-5.931
			C117.523,404.455,118.228,402.827,119.422,401.631z"/>
		<path fill="#6582DB" d="M142.843,424.429H75.018c-3.149,0-5.702-2.554-5.702-5.702v-30.845h79.23v30.845
			C148.546,421.875,145.993,424.429,142.843,424.429z"/>
		<g opacity="0.3">
			<path d="M85.799,405.046L85.799,405.046c-1.854,0-3.354-1.501-3.354-3.358v-13.806h6.708v13.806
				C89.153,403.545,87.651,405.046,85.799,405.046z"/>
			<path d="M132.063,405.046L132.063,405.046c-1.854,0-3.354-1.501-3.354-3.358v-13.806h6.71v13.806
				C135.418,403.545,133.917,405.046,132.063,405.046z"/>
		</g>
		<rect x="71.055" y="383.912" opacity="0.3" width="75.754" height="3.971"/>
	</g>
	<path fill="#006D7B" d="M431.71,444.11H289.872c-19.157,0-34.688-15.528-34.688-34.687V107.739
		c0-19.157,15.53-34.686,34.688-34.686H431.71c19.157,0,34.687,15.529,34.687,34.686v301.684
		C466.396,428.582,450.867,444.11,431.71,444.11z"/>
	<path fill="#FFFFFF" d="M431.71,81.279h-30.927c-3.008,0-5.638,2.022-6.411,4.929l-0.982,3.709c-0.831,3.124-3.659,5.3-6.893,5.3
		h-51.412c-3.232,0-6.062-2.176-6.892-5.3l-0.984-3.709c-0.772-2.907-3.401-4.929-6.41-4.929h-30.927
		c-14.614,0-26.46,11.846-26.46,26.459v301.69c0,14.61,11.846,26.458,26.46,26.458h141.84c14.612,0,26.457-11.848,26.457-26.458
		V107.739C458.169,93.125,446.324,81.279,431.71,81.279z"/>
	<path opacity="0.2" d="M375.328,89.114h-29.075c-0.759,0-1.374-0.615-1.374-1.374l0,0c0-0.758,0.615-1.374,1.374-1.374h29.075
		c0.76,0,1.375,0.615,1.375,1.374l0,0C376.703,88.499,376.088,89.114,375.328,89.114z"/>
	<circle opacity="0.2" cx="338.096" cy="87.741" r="2.163"/>
	<rect x="404.781" y="86.103" fill="#52586E" width="12.983" height="6.021"/>
	<polygon fill="#52586E" points="429.203,92.124 423.955,86.103 434.451,86.103 	"/>
	<path fill="#C2C2C2" d="M318.102,169.208h-32.912c-4.151,0-7.516-3.364-7.516-7.514V128.78c0-4.15,3.364-7.515,7.516-7.515h32.912
		c4.15,0,7.514,3.365,7.514,7.515v32.914C325.615,165.844,322.252,169.208,318.102,169.208z"/>
	<path fill="#C2C2C2" d="M377.248,169.208h-32.912c-4.15,0-7.515-3.364-7.515-7.514V128.78c0-4.15,3.364-7.515,7.515-7.515h32.912
		c4.148,0,7.515,3.365,7.515,7.515v32.914C384.763,165.844,381.396,169.208,377.248,169.208z"/>
	<path fill="#C2C2C2" d="M436.395,169.208H403.48c-4.15,0-7.514-3.364-7.514-7.514V128.78c0-4.15,3.363-7.515,7.514-7.515h32.914
		c4.149,0,7.513,3.365,7.513,7.515v32.914C443.907,165.844,440.544,169.208,436.395,169.208z"/>
	<g>
		<path fill="#FF927D" d="M438.475,221.2H283.106c-3,0-5.433-2.434-5.433-5.434v-22.573c0-3,2.433-5.434,5.433-5.434h155.368
			c3,0,5.433,2.433,5.433,5.434v22.573C443.907,218.767,441.475,221.2,438.475,221.2z"/>
		<path fill="#FF6344" d="M438.475,187.76h-27.2v33.44h27.2c3,0,5.433-2.434,5.433-5.434v-22.573
			C443.907,190.193,441.475,187.76,438.475,187.76z"/>
		<g>
			<path fill="#FF6344" d="M381.774,198.256h-92.075c-1.016,0-1.837-0.824-1.837-1.839l0,0c0-1.016,0.821-1.838,1.837-1.838h92.075
				c1.017,0,1.838,0.822,1.838,1.838l0,0C383.612,197.432,382.791,198.256,381.774,198.256z"/>
			<path fill="#FF6344" d="M381.774,206.317h-92.075c-1.016,0-1.837-0.822-1.837-1.837l0,0c0-1.016,0.821-1.838,1.837-1.838h92.075
				c1.017,0,1.838,0.822,1.838,1.838l0,0C383.612,205.495,382.791,206.317,381.774,206.317z"/>
			<path fill="#FF6344" d="M327.646,214.38h-37.946c-1.016,0-1.837-0.822-1.837-1.837l0,0c0-1.016,0.821-1.838,1.837-1.838h37.946
				c1.014,0,1.837,0.822,1.837,1.838l0,0C329.482,213.558,328.659,214.38,327.646,214.38z"/>
		</g>
		<circle fill="#FFFFFF" cx="427.59" cy="204.48" r="6.169"/>
	</g>
	<g>
		<path fill="#C2C2C2" d="M438.475,278.742H283.106c-3,0-5.433-2.432-5.433-5.433v-22.573c0-3.001,2.433-5.435,5.433-5.435h155.368
			c3,0,5.433,2.434,5.433,5.435v22.573C443.907,276.31,441.475,278.742,438.475,278.742z"/>
	</g>
	<path fill="#ABF9FF" d="M438.475,336.286H283.106c-3,0-5.433-2.434-5.433-5.436v-22.572c0-3.001,2.433-5.433,5.433-5.433h155.368
		c3,0,5.433,2.432,5.433,5.433v22.572C443.907,333.852,441.475,336.286,438.475,336.286z"/>
	<path fill="#006D7B" d="M438.475,302.845h-27.2v33.44h27.2c3,0,5.433-2.434,5.433-5.436v-22.572
		C443.907,305.277,441.475,302.845,438.475,302.845z"/>
	<g>
		<path fill="#006D7B" d="M381.774,313.34h-92.075c-1.016,0-1.837-0.825-1.837-1.839l0,0c0-1.017,0.821-1.838,1.837-1.838h92.075
			c1.017,0,1.838,0.821,1.838,1.838l0,0C383.612,312.515,382.791,313.34,381.774,313.34z"/>
		<path fill="#006D7B" d="M381.774,321.406h-92.075c-1.016,0-1.837-0.827-1.837-1.84l0,0c0-1.017,0.821-1.838,1.837-1.838h92.075
			c1.017,0,1.838,0.821,1.838,1.838l0,0C383.612,320.579,382.791,321.406,381.774,321.406z"/>
		<path fill="#006D7B" d="M327.646,329.465h-37.946c-1.016,0-1.837-0.823-1.837-1.839l0,0c0-1.012,0.821-1.839,1.837-1.839h37.946
			c1.014,0,1.837,0.827,1.837,1.839l0,0C329.482,328.642,328.659,329.465,327.646,329.465z"/>
	</g>
	<path fill="#FFFFFF" d="M433.759,319.566c0,3.406-2.762,6.169-6.167,6.169c-3.408,0-6.171-2.763-6.171-6.169
		c0-3.41,2.763-6.172,6.171-6.172C430.997,313.394,433.759,316.156,433.759,319.566z"/>
	<g opacity="0.2">
		<path d="M479.638,272.322l-145.584,20.623c-2.812,0.398-5.415-1.558-5.812-4.369l-2.997-21.153
			c-0.398-2.811,1.558-5.413,4.368-5.811l145.584-20.625c2.813-0.398,5.415,1.559,5.813,4.369l2.999,21.153
			C484.405,269.322,482.448,271.923,479.638,272.322z"/>
	</g>
	<g opacity="0.2">
		<path d="M441.802,181.799l-32.447-5.534c-4.089-0.698-6.841-4.581-6.143-8.671l5.535-32.446c0.696-4.091,4.578-6.841,8.671-6.144
			l32.442,5.534c4.093,0.698,6.844,4.58,6.144,8.67l-5.532,32.445C449.774,179.746,445.891,182.496,441.802,181.799z"/>
	</g>
	<rect x="155.39" y="353.142" fill="#ABF9FF" width="143.825" height="106.809"/>
	<g opacity="0.3">
		<linearGradient id="SVGID_1_" gradientUnits="userSpaceOnUse" x1="203.0015" y1="444.9536" x2="203.0015" y2="374.055">
			<stop  offset="0" style="stop-color:#000000"/>
			<stop  offset="1" style="stop-color:#000000;stop-opacity:0"/>
		</linearGradient>
		<path fill="url(#SVGID_1_)" d="M227.202,398.926l4.503-4.503l-9.271-9.272l-4.503,4.503c-3.091,3.091-8.374,0.902-8.374-3.469
			v-6.368h-13.11v6.368c0,4.371-5.284,6.56-8.375,3.469l-4.503-4.503l-9.27,9.272l4.503,4.503c3.091,3.086,0.9,8.371-3.469,8.371
			h-6.368v13.113h6.368c4.369,0,6.56,5.285,3.469,8.371l-4.503,4.503l9.27,9.271l4.503-4.503c3.091-3.091,8.375-0.899,8.375,3.47
			v6.367h13.11v-6.367c0-4.369,5.283-6.561,8.374-3.47l4.503,4.503l9.271-9.271l-4.504-4.503c-3.09-3.086-0.902-8.371,3.47-8.371
			h6.367v-13.113h-6.367C226.299,407.297,224.111,402.012,227.202,398.926z M203,424.505c-5.882,0-10.65-4.771-10.65-10.653
			c0-5.88,4.769-10.65,10.65-10.65c5.885,0,10.653,4.771,10.653,10.65C213.653,419.735,208.885,424.505,203,424.505z"/>
		<linearGradient id="SVGID_2_" gradientUnits="userSpaceOnUse" x1="253.8613" y1="444.9546" x2="253.8613" y2="374.0549">
			<stop  offset="0" style="stop-color:#000000"/>
			<stop  offset="1" style="stop-color:#000000;stop-opacity:0"/>
		</linearGradient>
		<path fill="url(#SVGID_2_)" d="M259.809,393.499c1.787-1.615,2.913-3.951,2.913-6.558c0-2.824-1.323-5.339-3.385-6.964
			c-0.49-0.382-1.216-0.022-1.216,0.604v6.764c0,1.043-0.555,2.007-1.459,2.526l-1.341,0.771c-0.901,0.524-2.018,0.524-2.918,0
			l-1.341-0.771c-0.904-0.52-1.459-1.483-1.459-2.526v-6.769c0-0.622-0.722-0.985-1.208-0.604c-2.392,1.878-3.794,4.956-3.293,8.331
			c0.307,2.043,1.347,3.872,2.834,5.214c1.428,1.282,2.134,3.193,2.134,5.114v30.441c0,1.924-0.706,3.833-2.134,5.116
			c-1.487,1.341-2.527,3.17-2.834,5.213c-0.501,3.374,0.901,6.452,3.293,8.331c0.486,0.382,1.208,0.018,1.208-0.604v-6.768
			c0-1.045,0.555-2.007,1.459-2.527l1.341-0.776c0.9-0.521,2.017-0.521,2.918,0l1.341,0.776c0.904,0.521,1.459,1.482,1.459,2.527
			v6.763c0,0.626,0.726,0.985,1.216,0.604c2.062-1.625,3.385-4.138,3.385-6.964c0-2.605-1.126-4.94-2.913-6.558
			c-1.415-1.283-2.153-3.149-2.153-5.054v-30.601C257.655,396.649,258.394,394.784,259.809,393.499z"/>
		<linearGradient id="SVGID_3_" gradientUnits="userSpaceOnUse" x1="276.6904" y1="444.9556" x2="276.6904" y2="374.0549">
			<stop  offset="0" style="stop-color:#000000"/>
			<stop  offset="1" style="stop-color:#000000;stop-opacity:0"/>
		</linearGradient>
		<path fill="url(#SVGID_3_)" d="M281.192,423.405c-0.971-0.037-1.752-0.827-1.752-1.805c0-0.954,0.745-1.713,1.677-1.789
			l-0.068-3.286h-2.55v-27.053l1.763-1.053l-2.493-8.603h-2.157l-2.494,8.603l1.763,1.053v27.053h-2.552l-0.068,3.286
			c0.935,0.076,1.677,0.835,1.677,1.789c0,0.978-0.78,1.768-1.752,1.805l-0.52,24.946h10.05L281.192,423.405z"/>
	</g>
	<rect x="155.39" y="353.142" fill="#006D7B" width="143.825" height="15.232"/>
	<g>
		<path fill="#FFFFFF" d="M232.634,420.411h6.368v-13.113h-6.368c-4.371,0-6.56-5.285-3.469-8.371l4.503-4.503l-9.271-9.272
			l-4.506,4.503c-3.087,3.091-8.371,0.902-8.371-3.469v-6.368h-13.111v6.368c0,4.371-5.285,6.56-8.375,3.469l-4.503-4.503
			l-9.271,9.272l4.503,4.503c3.091,3.086,0.902,8.371-3.467,8.371h-6.368v13.113h6.368c4.369,0,6.558,5.285,3.467,8.371
			l-4.503,4.503l9.271,9.271l4.503-4.503c3.09-3.091,8.375-0.899,8.375,3.47v6.367h13.111v-6.367c0-4.369,5.284-6.561,8.371-3.47
			l4.506,4.503l9.271-9.271l-4.503-4.503C226.074,425.696,228.263,420.411,232.634,420.411z M204.963,424.505
			c-5.882,0-10.65-4.771-10.65-10.653c0-5.88,4.769-10.65,10.65-10.65c5.884,0,10.653,4.771,10.653,10.65
			C215.616,419.735,210.847,424.505,204.963,424.505z"/>
		<path fill="#C2C2C2" d="M259.616,429.154v-30.601c0-1.904,0.741-3.77,2.155-5.055c1.79-1.615,2.912-3.951,2.912-6.558
			c0-2.824-1.322-5.339-3.384-6.964c-0.488-0.382-1.216-0.022-1.216,0.604v6.764c0,1.043-0.556,2.007-1.459,2.526l-1.339,0.776
			c-0.904,0.52-2.016,0.52-2.919,0l-1.343-0.776c-0.9-0.52-1.457-1.483-1.457-2.526v-6.769c0-0.622-0.721-0.985-1.209-0.604
			c-2.391,1.878-3.793,4.956-3.29,8.331c0.304,2.043,1.345,3.872,2.831,5.214c1.429,1.282,2.135,3.193,2.135,5.114v30.441
			c0,1.924-0.706,3.833-2.135,5.116c-1.486,1.341-2.527,3.17-2.831,5.213c-0.503,3.374,0.899,6.452,3.29,8.331
			c0.487,0.382,1.209,0.018,1.209-0.604v-6.768c0-1.045,0.557-2.007,1.457-2.527l1.343-0.776c0.903-0.521,2.015-0.521,2.919,0
			l1.339,0.776c0.903,0.521,1.459,1.482,1.459,2.527v6.763c0,0.626,0.728,0.985,1.216,0.604c2.062-1.625,3.384-4.138,3.384-6.964
			c0-2.605-1.122-4.94-2.912-6.558C260.357,432.924,259.616,431.058,259.616,429.154z"/>
		<polygon fill="#C2C2C2" points="279.731,379.817 277.572,379.817 275.08,388.419 276.843,389.472 276.843,416.525 
			280.462,416.525 280.462,389.472 282.225,388.419 		"/>
		<path fill="#333745" d="M281.405,421.6c0-0.954,0.741-1.713,1.677-1.789l-0.069-3.286h-8.719l-0.069,3.286
			c0.934,0.076,1.677,0.835,1.677,1.789c0,0.981-0.781,1.768-1.752,1.805l-0.521,24.946h10.049l-0.521-24.946
			C282.186,423.368,281.405,422.582,281.405,421.6z"/>
		<path fill="#FFFFFF" d="M255.825,431.491L255.825,431.491c-0.629,0-1.138-0.512-1.138-1.138v-32.998
			c0-0.627,0.509-1.138,1.138-1.138l0,0c0.628,0,1.138,0.511,1.138,1.138v32.998C256.963,430.979,256.453,431.491,255.825,431.491z"
			/>
	</g>
	<g>
		<path fill="#FFFFFF" d="M174.805,360.759c0,1.61-1.309,2.921-2.92,2.921c-1.614,0-2.92-1.311-2.92-2.921
			c0-1.612,1.306-2.918,2.92-2.918C173.496,357.841,174.805,359.147,174.805,360.759z"/>
		<path fill="#FFFFFF" d="M188.946,360.759c0,1.61-1.309,2.921-2.921,2.921c-1.613,0-2.919-1.311-2.919-2.921
			c0-1.612,1.306-2.918,2.919-2.918C187.638,357.841,188.946,359.147,188.946,360.759z"/>
		<path fill="#FFFFFF" d="M203.087,360.759c0,1.61-1.309,2.921-2.919,2.921c-1.612,0-2.921-1.311-2.921-2.921
			c0-1.612,1.309-2.918,2.921-2.918C201.778,357.841,203.087,359.147,203.087,360.759z"/>
	</g>
	<g opacity="0.2">
		<path d="M316.312,459.951h123.587l6.561-80.048c0.482-5.884-4.162-10.929-10.068-10.929H333.079c-5.259,0-9.64,4.036-10.068,9.276
			L316.312,459.951z"/>
	</g>
	<path fill="#FFB700" d="M455.638,459.951H332.052l-7.73-83.996c-0.347-3.748,2.604-6.98,6.368-6.98h110.74
		c3.305,0,6.064,2.519,6.369,5.808L455.638,459.951z"/>
	<path fill="#FFDB82" d="M353.067,377.221c0.942,10.235,10.003,18.529,20.238,18.529c10.234,0,17.767-8.294,16.825-18.529
		c-0.272-2.968-1.244-5.761-2.713-8.247h-33.153C353.255,371.46,352.794,374.253,353.067,377.221z"/>
	<path fill="#136B49" d="M344.912,409.899l-15.859,17.47l2.999,32.582h83.154l-55.409-50.739
		C355.503,405.28,348.828,405.587,344.912,409.899z"/>
	<path fill="#60B524" d="M360.684,459.951h94.954l-5.679-61.689l-10.528-9.642c-4.21-3.854-10.756-3.553-14.596,0.676
		L360.684,459.951z"/>
	<g>
		<circle opacity="0.3" cx="225.88" cy="158.922" r="41.748"/>
		<circle fill="#FF6344" cx="227.742" cy="154.983" r="39.886"/>
		<g>
			<path fill="#FFFFFF" d="M202.199,154.249c0-0.342,0.094-0.628,0.275-0.861c0.183-0.231,0.446-0.458,0.788-0.678l12.103-8.179
				c0.098-0.05,0.178-0.08,0.238-0.091c0.062-0.014,0.115-0.019,0.166-0.019c0.221,0,0.402,0.071,0.549,0.219
				c0.149,0.147,0.221,0.329,0.221,0.55v1.65c0,0.367-0.127,0.686-0.386,0.954c-0.257,0.271-0.52,0.491-0.788,0.659l-9.684,6.566
				l9.684,6.564c0.269,0.173,0.531,0.392,0.788,0.662c0.259,0.268,0.386,0.585,0.386,0.952v1.651c0,0.222-0.071,0.403-0.221,0.55
				c-0.146,0.147-0.328,0.221-0.549,0.221c-0.051,0-0.104-0.006-0.166-0.02c-0.061-0.011-0.141-0.042-0.238-0.091l-12.103-8.177
				c-0.342-0.221-0.605-0.447-0.788-0.68c-0.182-0.23-0.275-0.518-0.275-0.86V154.249z"/>
			<path fill="#FFFFFF" d="M235.684,169.8c0.047,0.123,0.071,0.232,0.071,0.329c0,0.221-0.077,0.41-0.237,0.568
				c-0.159,0.16-0.347,0.24-0.568,0.24h-1.1c-0.488,0-0.854-0.125-1.101-0.368c-0.245-0.245-0.415-0.49-0.514-0.734l-12.396-29.668
				c-0.049-0.123-0.074-0.235-0.074-0.331c0-0.219,0.081-0.409,0.24-0.568c0.158-0.16,0.347-0.238,0.568-0.238h1.21
				c0.465,0,0.819,0.118,1.061,0.349c0.248,0.23,0.43,0.482,0.555,0.751L235.684,169.8z"/>
			<path fill="#FFFFFF" d="M253.284,155.791c0,0.342-0.091,0.629-0.274,0.86c-0.183,0.233-0.447,0.459-0.786,0.68l-12.103,8.177
				c-0.102,0.05-0.181,0.081-0.24,0.091c-0.063,0.014-0.116,0.02-0.165,0.02c-0.22,0-0.403-0.074-0.551-0.221
				c-0.146-0.146-0.219-0.328-0.219-0.55v-1.651c0-0.367,0.128-0.684,0.383-0.952c0.258-0.27,0.521-0.488,0.792-0.662l9.68-6.564
				l-9.68-6.566c-0.271-0.168-0.534-0.388-0.792-0.659c-0.255-0.268-0.383-0.587-0.383-0.954v-1.65c0-0.221,0.072-0.402,0.219-0.55
				c0.147-0.148,0.331-0.219,0.551-0.219c0.049,0,0.103,0.005,0.165,0.019c0.06,0.011,0.139,0.041,0.24,0.091l12.103,8.179
				c0.339,0.22,0.604,0.446,0.786,0.678c0.184,0.232,0.274,0.519,0.274,0.861V155.791z"/>
		</g>
	</g>
	<g>
		<circle opacity="0.3" cx="141.919" cy="125.55" r="33.747"/>
		<path fill="#FF6344" d="M178.963,122.693c0,18.639-15.108,33.749-33.75,33.749c-18.638,0-33.746-15.11-33.746-33.749
			c0-18.637,15.108-33.747,33.746-33.747C163.854,88.946,178.963,104.057,178.963,122.693z"/>
		<g>
			<path opacity="0.3" d="M160.078,119.28c-1.345,0-2.561,0.499-3.522,1.295l-14.906-8.605c0.051-0.303,0.094-0.609,0.094-0.927
				c0-3.068-2.487-5.556-5.556-5.556c-3.066,0-5.556,2.488-5.556,5.556c0,3.067,2.489,5.554,5.556,5.554
				c1.348,0,2.565-0.498,3.525-1.293l14.904,8.604c-0.052,0.303-0.094,0.61-0.094,0.928c0,0.317,0.042,0.624,0.094,0.928
				l-14.904,8.604c-0.96-0.796-2.178-1.294-3.525-1.294c-3.066,0-5.556,2.486-5.556,5.555c0,3.068,2.489,5.555,5.556,5.555
				c3.068,0,5.556-2.486,5.556-5.555c0-0.317-0.043-0.625-0.094-0.927l14.906-8.604c0.962,0.795,2.178,1.294,3.522,1.294
				c3.07,0,5.556-2.488,5.556-5.556S163.148,119.28,160.078,119.28z"/>
			<path fill="#FFFFFF" d="M160.078,117.139c-1.345,0-2.561,0.497-3.522,1.293l-14.906-8.604c0.051-0.303,0.094-0.61,0.094-0.929
				c0-3.067-2.487-5.555-5.556-5.555c-3.066,0-5.556,2.488-5.556,5.555c0,3.069,2.489,5.556,5.556,5.556
				c1.348,0,2.565-0.498,3.525-1.295l14.904,8.605c-0.052,0.304-0.094,0.609-0.094,0.927c0,0.318,0.042,0.625,0.094,0.928
				l-14.904,8.606c-0.96-0.797-2.178-1.295-3.525-1.295c-3.066,0-5.556,2.487-5.556,5.555s2.489,5.556,5.556,5.556
				c3.068,0,5.556-2.488,5.556-5.556c0-0.318-0.043-0.625-0.094-0.928l14.906-8.604c0.962,0.797,2.178,1.294,3.522,1.294
				c3.07,0,5.556-2.487,5.556-5.555C165.634,119.625,163.148,117.139,160.078,117.139z"/>
		</g>
	</g>
	<path fill="#006D7B" d="M445.112,186.261l-32.446-5.535c-4.09-0.696-6.841-4.579-6.145-8.67l5.535-32.444
		c0.698-4.091,4.58-6.843,8.671-6.144l32.444,5.535c4.092,0.696,6.843,4.58,6.144,8.67l-5.532,32.445
		C453.085,184.208,449.202,186.959,445.112,186.261z"/>
	<path fill="#FFFFFF" d="M435.414,149.03l1.801,7.238c0.059,0.243,0.249,0.436,0.49,0.502l7.194,1.972
		c0.581,0.16,0.695,0.938,0.182,1.259l-6.326,3.951c-0.213,0.133-0.337,0.371-0.326,0.62l0.346,7.451
		c0.03,0.604-0.676,0.953-1.138,0.564l-5.713-4.796c-0.192-0.162-0.458-0.207-0.69-0.118l-6.981,2.632
		c-0.567,0.213-1.115-0.35-0.888-0.91l2.797-6.916c0.093-0.232,0.055-0.498-0.103-0.694l-4.661-5.824
		c-0.376-0.473-0.01-1.168,0.592-1.125l7.443,0.522c0.248,0.018,0.49-0.101,0.628-0.311l4.099-6.232
		C434.491,148.311,435.267,148.443,435.414,149.03z"/>
	<path fill="#A1B8FF" d="M480.946,267.591l-145.584,20.622c-2.811,0.4-5.413-1.558-5.812-4.369l-2.996-21.15
		c-0.397-2.814,1.558-5.416,4.369-5.813l145.583-20.625c2.812-0.398,5.414,1.559,5.814,4.371l2.994,21.152
		C485.717,264.589,483.759,267.191,480.946,267.591z"/>
	<path fill="#ABF9FF" d="M480.946,267.591l-145.584,20.622c-2.811,0.4-5.413-1.558-5.812-4.369l-2.996-21.15
		c-0.397-2.814,1.558-5.416,4.369-5.813l145.583-20.625c2.812-0.398,5.414,1.559,5.814,4.371l2.994,21.152
		C485.717,264.589,483.759,267.191,480.946,267.591z"/>
	<path fill="#006D7B" d="M476.507,236.256l-25.487,3.611l4.437,31.335l25.49-3.611c2.813-0.4,4.771-3.002,4.369-5.813l-2.994-21.152
		C481.921,237.814,479.318,235.858,476.507,236.256z"/>
	<g>
		<path fill="#006D7B" d="M424.771,253.618l-86.276,12.221c-0.952,0.137-1.832-0.525-1.967-1.477l0,0
			c-0.137-0.952,0.526-1.833,1.479-1.967l86.274-12.223c0.952-0.135,1.831,0.526,1.968,1.479l0,0
			C426.385,252.602,425.722,253.483,424.771,253.618z"/>
		<path fill="#006D7B" d="M425.842,261.172l-86.276,12.224c-0.953,0.133-1.832-0.529-1.967-1.479l0,0
			c-0.136-0.953,0.526-1.831,1.478-1.967l86.276-12.222c0.953-0.135,1.832,0.526,1.967,1.479l0,0
			C427.456,260.157,426.791,261.038,425.842,261.172z"/>
		<path fill="#006D7B" d="M376.19,275.913l-35.555,5.037c-0.952,0.135-1.831-0.527-1.968-1.478l0,0
			c-0.135-0.951,0.528-1.832,1.479-1.968l35.555-5.038c0.952-0.132,1.831,0.528,1.968,1.48l0,0
			C377.802,274.898,377.141,275.778,376.19,275.913z"/>
	</g>
	<circle fill="#FFFFFF" cx="468.529" cy="253.369" r="5.839"/>
	
		<line fill="none" stroke="#333745" stroke-width="0.942" stroke-miterlimit="10" x1="124.122" y1="459.951" x2="481.339" y2="459.951"/>
	<g>
		<circle fill="#FF6344" cx="55.687" cy="162.864" r="4.729"/>
		<circle fill="#FF6344" cx="75.762" cy="162.864" r="4.73"/>
		<circle fill="#FF6344" cx="95.837" cy="162.864" r="4.729"/>
		<circle fill="#FF6344" cx="115.912" cy="162.864" r="4.729"/>
	</g>
	<g>
		
			<line fill="none" stroke="#FF6344" stroke-width="1.5" stroke-miterlimit="10" x1="232.235" y1="67.144" x2="232.235" y2="88.569"/>
		
			<line fill="none" stroke="#FF6344" stroke-width="1.5" stroke-miterlimit="10" x1="242.948" y1="77.856" x2="221.525" y2="77.856"/>
	</g>
	<g>
		
			<line fill="none" stroke="#FF6344" stroke-width="1.8841" stroke-linecap="round" stroke-linejoin="round" stroke-miterlimit="10" x1="481.339" y1="277.378" x2="481.339" y2="298.805"/>
		
			<line fill="none" stroke="#FF6344" stroke-width="1.8841" stroke-linecap="round" stroke-linejoin="round" stroke-miterlimit="10" x1="492.052" y1="288.088" x2="470.625" y2="288.088"/>
	</g>
	<g>
		
			<line fill="none" stroke="#FF6344" stroke-width="1.5" stroke-miterlimit="10" x1="200.641" y1="82.588" x2="201.04" y2="104.009"/>
		<line fill="none" stroke="#FF6344" stroke-width="1.5" stroke-miterlimit="10" x1="211.551" y1="93.1" x2="190.13" y2="93.5"/>
	</g>
	<g>
		
			<line fill="none" stroke="#FF6344" stroke-width="1.8841" stroke-linecap="round" stroke-linejoin="round" stroke-miterlimit="10" x1="35.42" y1="261.647" x2="35.818" y2="283.067"/>
		
			<line fill="none" stroke="#FF6344" stroke-width="1.8841" stroke-linecap="round" stroke-linejoin="round" stroke-miterlimit="10" x1="46.33" y1="272.158" x2="24.908" y2="272.557"/>
	</g>
</g>
<g id="DESIGNED_BY_FREEPIK">
</g>
</svg>
